<svg width="28" height="28" viewBox="0 0 28 28" fill="none" xmlns="http://www.w3.org/2000/svg">
<path d="M27.75 14C27.75 21.5939 21.5939 27.75 14 27.75C6.40608 27.75 0.25 21.5939 0.25 14C0.25 6.40608 6.40608 0.25 14 0.25C21.5939 0.25 27.75 6.40608 27.75 14Z" fill="#EFF3FF"/>
<path d="M27.75 14C27.75 21.5939 21.5939 27.75 14 27.75C6.40608 27.75 0.25 21.5939 0.25 14C0.25 6.40608 6.40608 0.25 14 0.25C21.5939 0.25 27.75 6.40608 27.75 14Z" stroke="url(#paint0_linear)" stroke-width="0.5"/>
<path d="M27.75 14C27.75 21.5939 21.5939 27.75 14 27.75C6.40608 27.75 0.25 21.5939 0.25 14C0.25 6.40608 6.40608 0.25 14 0.25C21.5939 0.25 27.75 6.40608 27.75 14Z" stroke="url(#paint1_linear)" stroke-width="0.5"/>
<g clip-path="url(#clip0)">
<path d="M19.4387 9.77961C19.7265 9.4918 19.7265 9.02516 19.4387 8.73711L18.9174 8.21586C18.6296 7.92805 18.163 7.92805 17.875 8.21586L8.06123 18.2204C7.77341 18.5082 7.77341 18.9748 8.06123 19.2629L8.58247 19.7841C8.87029 20.072 9.33716 20.072 9.62497 19.7841L19.4387 9.77961Z" fill="#5E6368"/>
<path d="M12.2239 9.94652H10.5835V8.30611C10.5835 8.13705 10.4464 8 10.2774 8H9.25262C9.08356 8 8.94652 8.13705 8.94652 8.30611V9.94652H7.30611C7.13705 9.94652 7 10.0836 7 10.2526V11.2774C7 11.4464 7.13705 11.5835 7.30611 11.5835H8.94652V13.2239C8.94652 13.3929 9.08356 13.53 9.25262 13.53H10.2774C10.4464 13.53 10.5835 13.3929 10.5835 13.2239V11.5835H12.2239C12.3929 11.5835 12.53 11.4464 12.53 11.2774V10.2526C12.53 10.0836 12.3929 9.94652 12.2239 9.94652Z" fill="#5E6368"/>
<path d="M20.1939 16.4167H15.2761C15.107 16.4167 14.97 16.5538 14.97 16.7229V17.7476C14.97 17.9167 15.107 18.0537 15.2761 18.0537H20.1939C20.3629 18.0537 20.5 17.9167 20.5 17.7476V16.7229C20.5 16.5538 20.3629 16.4167 20.1939 16.4167Z" fill="#5E6368"/>
</g>
<defs>
<linearGradient id="paint0_linear" x1="0.136997" y1="0" x2="0.136997" y2="27.726" gradientUnits="userSpaceOnUse">
<stop stop-opacity="0"/>
<stop offset="0.8" stop-opacity="0.02"/>
<stop offset="1" stop-opacity="0.04"/>
</linearGradient>
<linearGradient id="paint1_linear" x1="0" y1="0" x2="0" y2="28" gradientUnits="userSpaceOnUse">
<stop stop-color="white" stop-opacity="0.12"/>
<stop offset="0.2" stop-color="white" stop-opacity="0.06"/>
<stop offset="1" stop-color="white" stop-opacity="0"/>
</linearGradient>
<clipPath id="clip0">
<rect width="13.5" height="12" fill="white" transform="translate(7 8)"/>
</clipPath>
</defs>
</svg>
