<svg width="28" height="28" viewBox="0 0 28 28" fill="none" xmlns="http://www.w3.org/2000/svg">
<path d="M27.75 14C27.75 21.5939 21.5939 27.75 14 27.75C6.40608 27.75 0.25 21.5939 0.25 14C0.25 6.40608 6.40608 0.25 14 0.25C21.5939 0.25 27.75 6.40608 27.75 14Z" fill="#4285F4"/>
<path d="M27.75 14C27.75 21.5939 21.5939 27.75 14 27.75C6.40608 27.75 0.25 21.5939 0.25 14C0.25 6.40608 6.40608 0.25 14 0.25C21.5939 0.25 27.75 6.40608 27.75 14Z" stroke="url(#paint0_linear)" stroke-width="0.5"/>
<path d="M27.75 14C27.75 21.5939 21.5939 27.75 14 27.75C6.40608 27.75 0.25 21.5939 0.25 14C0.25 6.40608 6.40608 0.25 14 0.25C21.5939 0.25 27.75 6.40608 27.75 14Z" stroke="url(#paint1_linear)" stroke-width="0.5"/>
<g clip-path="url(#clip0)">
<path d="M17.4286 15.5588V18.2856H9.57143V9.71416H15.2138C15.2924 9.71416 15.3661 9.67934 15.4225 9.62041L16.4047 8.54899C16.5913 8.34541 16.4587 7.99988 16.196 7.99988H9.17857C8.5279 7.99988 8 8.57577 8 9.28559V18.7142C8 19.424 8.5279 19.9999 9.17857 19.9999H17.8214C18.4721 19.9999 19 19.424 19 18.7142V14.4874C19 14.2008 18.6833 14.0588 18.4967 14.2597L17.5145 15.3311C17.4605 15.3927 17.4286 15.4731 17.4286 15.5588Z" fill="white"/>
<path d="M12.8407 17.2411L11.3873 17.3724C11.1677 17.3923 10.9816 17.2061 11.0015 16.9866L11.1328 15.5332L16.6817 9.98432C16.7788 9.88721 16.9375 9.88849 17.0362 9.98716L18.3867 11.3377C18.4854 11.4363 18.4867 11.5951 18.3896 11.6922L12.8407 17.2411Z" fill="white"/>
<path d="M18.9462 10.8401L17.5361 9.42999C17.45 9.3439 17.45 9.20431 17.5361 9.11822L18.397 8.2573C18.7402 7.91407 19.2967 7.91407 19.6399 8.2573L20.1189 8.73626C20.4621 9.0795 20.4621 9.63599 20.1189 9.97922L19.258 10.8401C19.1719 10.9262 19.0323 10.9262 18.9462 10.8401Z" fill="white"/>
</g>
<defs>
<linearGradient id="paint0_linear" x1="0.136997" y1="0" x2="0.136997" y2="27.726" gradientUnits="userSpaceOnUse">
<stop stop-opacity="0"/>
<stop offset="0.8" stop-opacity="0.02"/>
<stop offset="1" stop-opacity="0.04"/>
</linearGradient>
<linearGradient id="paint1_linear" x1="0" y1="0" x2="0" y2="28" gradientUnits="userSpaceOnUse">
<stop stop-color="white" stop-opacity="0.12"/>
<stop offset="0.2" stop-color="white" stop-opacity="0.06"/>
<stop offset="1" stop-color="white" stop-opacity="0"/>
</linearGradient>
<clipPath id="clip0">
<rect width="18" height="12" fill="white" transform="translate(5 7.99988)"/>
</clipPath>
</defs>
</svg>
