<svg width="28" height="28" viewBox="0 0 28 28" fill="none" xmlns="http://www.w3.org/2000/svg">
<path d="M27.75 14C27.75 21.5939 21.5939 27.75 14 27.75C6.40608 27.75 0.25 21.5939 0.25 14C0.25 6.40608 6.40608 0.25 14 0.25C21.5939 0.25 27.75 6.40608 27.75 14Z" fill="#4285F4"/>
<path d="M27.75 14C27.75 21.5939 21.5939 27.75 14 27.75C6.40608 27.75 0.25 21.5939 0.25 14C0.25 6.40608 6.40608 0.25 14 0.25C21.5939 0.25 27.75 6.40608 27.75 14Z" stroke="url(#paint0_linear)" stroke-width="0.5"/>
<path d="M27.75 14C27.75 21.5939 21.5939 27.75 14 27.75C6.40608 27.75 0.25 21.5939 0.25 14C0.25 6.40608 6.40608 0.25 14 0.25C21.5939 0.25 27.75 6.40608 27.75 14Z" stroke="url(#paint1_linear)" stroke-width="0.5"/>
<path d="M21.8532 18.9839L20.3264 17.7541C20.6325 17.5414 20.8342 17.1787 20.8342 16.7671V8.86109C20.8342 8.20638 20.3241 7.67519 19.6952 7.67519H8.30479C8.16463 7.67519 8.03049 7.7018 7.90648 7.75008L7.07873 7.08334C6.91324 6.94927 6.67469 6.98026 6.54591 7.15256C6.54586 7.15263 6.54581 7.1527 6.54576 7.15277L6.07994 7.7771C5.95126 7.94944 5.98111 8.19775 6.14662 8.33175L20.9211 20.2323C21.0866 20.3664 21.3252 20.3354 21.4539 20.1631C21.454 20.163 21.454 20.163 21.4541 20.1629L21.9202 19.5386C22.0488 19.3662 22.0188 19.1178 21.8532 18.9839ZM19.3155 9.25639V16.3718H18.6103L9.77656 9.25639H19.3155Z" fill="white"/>
<path d="M17.216 19.1389H15.5187L15.1391 17.953H15.7468C15.9677 17.953 16.0633 17.6616 15.8885 17.521L14.7289 16.5879C14.5548 16.4478 14.341 16.3718 14.121 16.3718H8.68449V11.991C8.68449 11.8227 8.6096 11.6639 8.48168 11.5609L7.68085 10.9165C7.47076 10.7475 7.16577 10.9034 7.16577 11.1798V16.7671C7.16577 17.4221 7.67574 17.953 8.30481 17.953H12.861L12.4813 19.1389H10.7841C10.4728 19.1389 10.2104 19.3939 10.2034 19.7179C10.1961 20.0529 10.4527 20.3248 10.7727 20.3248H17.2273C17.5474 20.3248 17.804 20.0529 17.7967 19.7179C17.7896 19.3939 17.5272 19.1389 17.216 19.1389Z" fill="white"/>
<defs>
<linearGradient id="paint0_linear" x1="0.136997" y1="0" x2="0.136997" y2="27.726" gradientUnits="userSpaceOnUse">
<stop stop-opacity="0"/>
<stop offset="0.8" stop-opacity="0.02"/>
<stop offset="1" stop-opacity="0.04"/>
</linearGradient>
<linearGradient id="paint1_linear" x1="0" y1="0" x2="0" y2="28" gradientUnits="userSpaceOnUse">
<stop stop-color="white" stop-opacity="0.12"/>
<stop offset="0.2" stop-color="white" stop-opacity="0.06"/>
<stop offset="1" stop-color="white" stop-opacity="0"/>
</linearGradient>
</defs>
</svg>
