<svg width="28" height="28" viewBox="0 0 28 28" fill="none" xmlns="http://www.w3.org/2000/svg">
<g opacity="0.3">
<path d="M27.75 14C27.75 21.5939 21.5939 27.75 14 27.75C6.40608 27.75 0.25 21.5939 0.25 14C0.25 6.40608 6.40608 0.25 14 0.25C21.5939 0.25 27.75 6.40608 27.75 14Z" fill="#EFF3FF"/>
<path d="M27.75 14C27.75 21.5939 21.5939 27.75 14 27.75C6.40608 27.75 0.25 21.5939 0.25 14C0.25 6.40608 6.40608 0.25 14 0.25C21.5939 0.25 27.75 6.40608 27.75 14Z" stroke="url(#paint0_linear)" stroke-width="0.5"/>
<path d="M27.75 14C27.75 21.5939 21.5939 27.75 14 27.75C6.40608 27.75 0.25 21.5939 0.25 14C0.25 6.40608 6.40608 0.25 14 0.25C21.5939 0.25 27.75 6.40608 27.75 14Z" stroke="url(#paint1_linear)" stroke-width="0.5"/>
<g clip-path="url(#clip0)">
<path d="M21.8532 18.9838L20.3264 17.754C20.6325 17.5413 20.8342 17.1786 20.8342 16.767V8.86097C20.8342 8.20625 20.3241 7.67507 19.6952 7.67507H8.30479C8.16463 7.67507 8.03049 7.70168 7.90648 7.74996L7.07873 7.08322C6.91324 6.94915 6.67469 6.98013 6.54591 7.15243C6.54586 7.1525 6.54581 7.15257 6.54576 7.15265L6.07994 7.77697C5.95126 7.94931 5.98111 8.19762 6.14662 8.33163L20.9211 20.2322C21.0866 20.3663 21.3252 20.3353 21.4539 20.163C21.454 20.1629 21.454 20.1628 21.4541 20.1628L21.9202 19.5384C22.0488 19.366 22.0188 19.1177 21.8532 18.9838ZM19.3155 9.25627V16.3717H18.6103L9.77656 9.25627H19.3155Z" fill="black"/>
<path d="M17.2159 19.1388H15.5187L15.139 17.9529H15.7468C15.9677 17.9529 16.0632 17.6615 15.8884 17.5208L14.7289 16.5878C14.5548 16.4477 14.341 16.3717 14.121 16.3717H8.68446V11.9909C8.68446 11.8226 8.60957 11.6637 8.48165 11.5608L7.68082 10.9164C7.47073 10.7473 7.16574 10.9033 7.16574 11.1797V16.767C7.16574 17.4219 7.67571 17.9529 8.30478 17.9529H12.8609L12.4813 19.1388H10.784C10.4728 19.1388 10.2104 19.3938 10.2033 19.7178C10.196 20.0528 10.4526 20.3247 10.7727 20.3247H17.2273C17.5473 20.3247 17.804 20.0528 17.7966 19.7178C17.7896 19.3938 17.5272 19.1388 17.2159 19.1388Z" fill="black"/>
</g>
</g>
<defs>
<linearGradient id="paint0_linear" x1="0.136997" y1="0" x2="0.136997" y2="27.726" gradientUnits="userSpaceOnUse">
<stop stop-opacity="0"/>
<stop offset="0.8" stop-opacity="0.02"/>
<stop offset="1" stop-opacity="0.04"/>
</linearGradient>
<linearGradient id="paint1_linear" x1="0" y1="0" x2="0" y2="28" gradientUnits="userSpaceOnUse">
<stop stop-color="white" stop-opacity="0.12"/>
<stop offset="0.2" stop-color="white" stop-opacity="0.06"/>
<stop offset="1" stop-color="white" stop-opacity="0"/>
</linearGradient>
<clipPath id="clip0">
<rect width="16" height="14" fill="white" transform="translate(6 6.99988)"/>
</clipPath>
</defs>
</svg>
