<svg width="36" height="37" viewBox="0 0 36 37" fill="none" xmlns="http://www.w3.org/2000/svg">
<g clip-path="url(#clip0)">
<path d="M16.3533 16.9231C18.2801 16.9231 19.8479 15.34 19.8479 13.3942C19.8479 11.4481 18.2801 9.86499 16.3533 9.86499C14.4266 9.86499 12.859 11.4481 12.859 13.3942C12.859 15.34 14.4266 16.9231 16.3533 16.9231ZM16.3533 11.9348C17.1502 11.9348 17.7984 12.5894 17.7984 13.3942C17.7984 14.1986 17.1502 14.8533 16.3533 14.8533C15.5567 14.8533 14.9085 14.1986 14.9085 13.3942C14.9085 12.5894 15.5567 11.9348 16.3533 11.9348Z" fill="#555865" fill-opacity="0.5"/>
<path d="M34.4643 27.4495H31.4975V24.4534C31.4975 23.8818 31.0387 23.4185 30.4727 23.4185C29.9068 23.4185 29.448 23.8818 29.448 24.4534V27.4495H26.4812C25.9152 27.4495 25.4564 27.9129 25.4564 28.4844C25.4564 29.056 25.9152 29.5193 26.4812 29.5193H29.448V32.5155C29.448 33.0871 29.9068 33.5504 30.4727 33.5504C31.0387 33.5504 31.4975 33.0871 31.4975 32.5155V29.5193H34.4643C35.0302 29.5193 35.489 29.056 35.489 28.4844C35.489 27.9129 35.0302 27.4495 34.4643 27.4495Z" fill="#555865" fill-opacity="0.5"/>
<path d="M25.1549 31.4806H2.56026V27.956L9.76771 20.6772L15.5721 26.539C15.7535 26.7222 15.9892 26.8467 16.2445 26.872C16.5722 26.9045 16.8866 26.7898 17.1155 26.5583L26.2321 17.3515L29.622 20.7749C30.2938 21.4533 31.0994 21.2662 31.3527 20.3415C31.4535 19.9733 31.3471 19.5902 31.0902 19.3307L26.9938 15.1935C26.5734 14.7699 25.89 14.7701 25.47 15.1943L16.3536 24.4009L10.5304 18.5203C10.32 18.3076 10.0379 18.1935 9.73901 18.2013C9.45341 18.2088 9.18435 18.3392 8.98233 18.5432L2.56026 25.0289V5.32396H33.4396V15.473H33.4398V22.3837C33.4398 22.9552 33.8986 23.4184 34.4645 23.4184C35.0304 23.4184 35.4891 22.9552 35.4891 22.3837V4.54401C35.4891 3.83164 34.9173 3.25415 34.2119 3.25415H1.78795C1.08257 3.25415 0.510742 3.83164 0.510742 4.54401V32.2605C0.510742 32.9729 1.08257 33.5504 1.78795 33.5504H25.1549C25.7208 33.5504 26.1796 33.087 26.1796 32.5155C26.1796 31.9439 25.7208 31.4806 25.1549 31.4806Z" fill="#555865" fill-opacity="0.5"/>
</g>
<defs>
<clipPath id="clip0">
<rect width="34.9784" height="35.3247" fill="white" transform="translate(0.510742 0.701416)"/>
</clipPath>
</defs>
</svg>
