<svg xmlns="http://www.w3.org/2000/svg" width="231" height="231" fill="none"><rect id="backgroundrect" width="100%" height="100%" x="0" y="0" fill="none" stroke="none"/>



<g class="currentLayer" style=""><title>Layer 1</title><image xmlns:xlink="http://www.w3.org/1999/xlink" opacity="1" id="svg_8" x="148" y="195" width="0" height="0" style="color: rgb(0, 0, 0);" xlink:href="logo/vector_paint_icon256.png"/><g class=""><path d="M110.9996,111 C116.51339999999999,111 121,106.5141 121,101.0004 C121,95.4859 116.51339999999999,91 110.9996,91 C105.4859,91 101,95.4859 101,101.0004 C101,106.5141 105.4859,111 110.9996,111 zM110.9996,96.8651 C113.28,96.8651 115.1349,98.72 115.1349,101.0004 C115.1349,103.28 113.28,105.1349 110.9996,105.1349 C108.72,105.1349 106.8651,103.28 106.8651,101.0004 C106.8651,98.72 108.72,96.8651 110.9996,96.8651 z" fill="#555865" id="svg_1" class=""/><path d="M163.041,141.4779 H154.4743 V132.91129999999998 C154.4743,131.27710000000002 153.14960000000002,129.95229999999998 151.5154,129.95229999999998 C149.8811,129.95229999999998 148.5564,131.27710000000002 148.5564,132.91129999999998 V141.4779 H139.9897 C138.3555,141.4779 137.0308,142.80270000000002 137.0308,144.43689999999998 C137.0308,146.0711 138.3555,147.39589999999998 139.9897,147.39589999999998 H148.5564 V155.9625 C148.5564,157.5967 149.8811,158.92149999999998 151.5154,158.92149999999998 C153.14960000000002,158.92149999999998 154.4743,157.5967 154.4743,155.9625 V147.39589999999998 H163.041 C164.67520000000002,147.39589999999998 166,146.0711 166,144.43689999999998 C166,142.80270000000002 164.67520000000002,141.4779 163.041,141.4779 z" fill="#555865" id="svg_2" class=""/><path d="M136.1599,153.0563 H70.91797 V142.9349 L91.7295,122.0327 L108.4896,138.8658 C109.0133,139.39190000000002 109.69409999999999,139.74939999999998 110.4313,139.8221 C111.3774,139.9153 112.28540000000001,139.586 112.94630000000001,138.9213 L139.2705,112.4825 L149.05880000000002,122.3134 C150.9985,124.2615 153.3246,123.7242 154.05599999999998,121.06880000000001 C154.34730000000002,120.0113 154.0401,118.9113 153.29829999999998,118.1662 L141.4697,106.28569999999999 C140.2561,105.069 138.2826,105.0698 137.0698,106.288 L110.7464,132.726 L93.9318,115.839 C93.3244,115.2281 92.5097,114.9006 91.6466,114.923 C90.8219,114.9443 90.045,115.3189 89.46170000000001,115.90469999999999 L70.91797,134.5293 V77.9437 H160.082 V107.088 H160.08280000000002 V126.9332 C160.08280000000002,128.5743 161.4074,129.9047 163.0414,129.9047 C164.6754,129.9047 166,128.5743 166,126.9332 V75.70400000000001 C166,73.65834 164.34890000000001,72 162.3121,72 H68.68794 C66.65115,72 65,73.65834 65,75.70400000000001 V155.296 C65,157.3417 66.65115,159 68.68794,159 H136.1599 C137.79410000000001,159 139.1189,157.6695 139.1189,156.0281 C139.1189,154.3868 137.79410000000001,153.0563 136.1599,153.0563 z" fill="#555865" id="svg_3" class=""/></g></g></svg>