<svg width="101" height="102" viewBox="0 0 101 102" fill="none" xmlns="http://www.w3.org/2000/svg">
<path d="M45.7456 46.8397C51.3091 46.8397 55.8362 42.2686 55.8362 36.65C55.8362 31.0306 51.3091 26.4595 45.7456 26.4595C40.1821 26.4595 35.6558 31.0306 35.6558 36.65C35.6558 42.2686 40.1821 46.8397 45.7456 46.8397ZM45.7456 32.436C48.0465 32.436 49.9182 34.3263 49.9182 36.65C49.9182 38.9729 48.0465 40.8631 45.7456 40.8631C43.4454 40.8631 41.5737 38.9729 41.5737 36.65C41.5737 34.3263 43.4454 32.436 45.7456 32.436Z" fill="#555865" fill-opacity="0.5"/>
<path d="M98.041 77.2352H89.4743V68.5837C89.4743 66.9334 88.1496 65.5955 86.5154 65.5955C84.8811 65.5955 83.5564 66.9334 83.5564 68.5837V77.2352H74.9897C73.3555 77.2352 72.0308 78.5731 72.0308 80.2235C72.0308 81.8738 73.3555 83.2117 74.9897 83.2117H83.5564V91.8632C83.5564 93.5136 84.8811 94.8515 86.5154 94.8515C88.1496 94.8515 89.4743 93.5136 89.4743 91.8632V83.2117H98.041C99.6752 83.2117 101 81.8738 101 80.2235C101 78.5731 99.6752 77.2352 98.041 77.2352Z" fill="#555865" fill-opacity="0.5"/>
<path d="M71.1599 88.8749H5.91797V78.6976L26.7295 57.6801L43.4896 74.6061C44.0133 75.1351 44.6941 75.4946 45.4313 75.5676C46.3774 75.6614 47.2854 75.3303 47.9463 74.6619L74.2705 48.0771L84.0588 57.9623C85.9985 59.9212 88.3246 59.3809 89.056 56.7109C89.3473 55.6475 89.0401 54.5414 88.2983 53.7922L76.4697 41.8461C75.2561 40.6227 73.2826 40.6235 72.0698 41.8484L45.7464 68.4324L28.9318 51.4521C28.3244 50.8379 27.5097 50.5086 26.6466 50.5311C25.8219 50.5525 25.045 50.9291 24.4617 51.5182L5.91797 70.2456V13.3477H95.082V42.6529H95.0828V62.6076C95.0828 64.2578 96.4074 65.5955 98.0414 65.5955C99.6754 65.5955 101 64.2578 101 62.6076V11.0956C101 9.03859 99.3489 7.37109 97.3121 7.37109H3.68794C1.65115 7.37109 0 9.03859 0 11.0956V91.127C0 93.184 1.65115 94.8515 3.68794 94.8515H71.1599C72.7941 94.8515 74.1189 93.5136 74.1189 91.8632C74.1189 90.2128 72.7941 88.8749 71.1599 88.8749Z" fill="#555865" fill-opacity="0.5"/>
</svg>
