<svg width="104" height="26" viewBox="0 0 104 26" fill="none" xmlns="http://www.w3.org/2000/svg">
<g clip-path="url(#clip0)">
<path d="M12.363 17.2728L8.7476 13.6615C8.43433 13.3486 8.00944 13.1728 7.56641 13.1728C7.12338 13.1728 6.6985 13.3486 6.38523 13.6615C6.07196 13.9744 5.89597 14.3988 5.89597 14.8414C5.89597 15.2839 6.07198 15.7083 6.38525 16.0212L7.00655 16.6418L2.8566 20.787C2.50478 20.6507 2.12086 20.6193 1.75154 20.6968C1.38221 20.7743 1.04338 20.9573 0.776219 21.2235L0.148914 21.8501C0.0535771 21.9454 1.90735e-05 22.0745 1.90735e-05 22.2092C1.90735e-05 22.3439 0.0535771 22.4731 0.148914 22.5683L3.4356 25.8512C3.4828 25.8984 3.53885 25.9358 3.60053 25.9613C3.66221 25.9868 3.72833 26 3.79509 26C3.86185 26 3.92796 25.9868 3.98964 25.9613C4.05132 25.9358 4.10736 25.8984 4.15457 25.8512L4.78182 25.2247C5.04837 24.9578 5.23157 24.6194 5.30915 24.2505C5.38673 23.8816 5.35536 23.4981 5.21884 23.1467L7.28179 21.0861C7.37714 20.9909 7.4307 20.8617 7.4307 20.727C7.4307 20.5923 7.37714 20.4631 7.28179 20.3679C7.18644 20.2727 7.05713 20.2192 6.92229 20.2192C6.78744 20.2192 6.65812 20.2727 6.56277 20.3679L4.61665 22.3118L3.69239 21.3884L7.72553 17.3599L10.0006 19.6324C10.3139 19.9453 10.7388 20.1211 11.1818 20.1211C11.6248 20.1211 12.0497 19.9454 12.363 19.6324C12.6763 19.3195 12.8523 18.8951 12.8523 18.4526C12.8523 18.0101 12.6763 17.5857 12.363 17.2728V17.2728ZM4.06321 23.1951C4.23697 23.3692 4.33451 23.605 4.33446 23.8509C4.3344 24.0967 4.23674 24.3325 4.06291 24.5065L3.79514 24.774L1.2274 22.2092L1.49522 21.9418C1.6695 21.7681 1.90564 21.6705 2.15184 21.6705C2.39803 21.6705 2.63417 21.7681 2.80845 21.9418L4.06321 23.1951ZM11.644 18.9143C11.5833 18.9749 11.5112 19.023 11.4319 19.0558C11.3526 19.0887 11.2676 19.1055 11.1818 19.1055C11.0959 19.1055 11.011 19.0887 10.9317 19.0558C10.8524 19.023 10.7803 18.9749 10.7196 18.9143L8.08501 16.2827L8.0848 16.2826L7.10417 15.3031C7.04329 15.2425 6.99498 15.1705 6.96199 15.0912C6.92899 15.012 6.91196 14.927 6.91189 14.8412C6.91181 14.7553 6.92868 14.6703 6.96152 14.591C6.99437 14.5117 7.04256 14.4396 7.10332 14.3789C7.16409 14.3182 7.23625 14.2701 7.31565 14.2373C7.39506 14.2045 7.48016 14.1876 7.5661 14.1877C7.65203 14.1878 7.73711 14.2048 7.81646 14.2377C7.89581 14.2707 7.96787 14.319 8.02852 14.3798L11.644 17.9911C11.7047 18.0517 11.7528 18.1236 11.7857 18.2028C11.8185 18.282 11.8354 18.3669 11.8354 18.4527C11.8354 18.5384 11.8185 18.6233 11.7857 18.7025C11.7528 18.7817 11.7047 18.8537 11.644 18.9143Z" fill="#1875F0"/>
<path d="M25.8808 21.8501L25.2535 21.2236C24.9864 20.9573 24.6475 20.7744 24.2782 20.6969C23.9089 20.6194 23.525 20.6507 23.1731 20.7871L19.0232 16.6419L19.6549 16.0109C19.9674 15.6978 20.1428 15.2736 20.1425 14.8315C20.1422 14.3894 19.9662 13.9655 19.6532 13.6529C19.3403 13.3403 18.9159 13.1645 18.4732 13.1642C18.0306 13.1639 17.606 13.339 17.2926 13.6512L16.9714 13.972L7.92344 1.95064C7.85336 1.85754 7.75337 1.79133 7.64022 1.76311L0.631516 0.0151667C0.546363 -0.0060679 0.457164 -0.00491902 0.372587 0.0184972C0.28801 0.0419135 0.210941 0.0867928 0.148884 0.148784C0.0868263 0.210776 0.0418939 0.28776 0.0184578 0.372243C-0.0049782 0.456725 -0.00612163 0.545832 0.0151444 0.630885L1.76508 7.63158C1.79333 7.7446 1.85962 7.84448 1.95283 7.91448L13.9879 16.952L13.6771 17.2624C13.3643 17.5754 13.1887 17.9997 13.1889 18.442C13.1891 18.8842 13.3651 19.3083 13.6782 19.6211C13.9913 19.9338 14.4158 20.1096 14.8586 20.1098C15.3014 20.11 15.7262 19.9345 16.0395 19.6221L16.6608 19.0015L20.8108 23.1467C20.6743 23.4981 20.6429 23.8816 20.7205 24.2505C20.7981 24.6194 20.9813 24.9578 21.2478 25.2247L21.8751 25.8512C21.9223 25.8984 21.9783 25.9358 22.04 25.9613C22.1017 25.9868 22.1678 26 22.2345 26C22.3013 26 22.3674 25.9868 22.4291 25.9613C22.4908 25.9358 22.5468 25.8984 22.594 25.8512L25.8807 22.5683C25.9279 22.5211 25.9654 22.4652 25.991 22.4036C26.0165 22.3419 26.0297 22.2759 26.0297 22.2092C26.0297 22.1425 26.0165 22.0765 25.991 22.0149C25.9654 21.9533 25.928 21.8973 25.8808 21.8501ZM2.70795 7.21085L1.20671 1.20543L7.21901 2.70489L16.2452 14.6973L15.8441 15.0978L4.31854 3.59549C4.22301 3.50099 4.09391 3.44813 3.95946 3.44849C3.82502 3.44884 3.69618 3.50237 3.60115 3.59737C3.50613 3.69237 3.45264 3.82109 3.4524 3.95538C3.45217 4.08967 3.50519 4.2186 3.59988 4.31393L15.1251 15.816L14.7139 16.2267L2.70795 7.21085ZM15.3205 18.9039C15.2598 18.9647 15.1877 19.0129 15.1084 19.0459C15.029 19.0788 14.944 19.0958 14.858 19.0959C14.7721 19.096 14.687 19.0791 14.6076 19.0463C14.5282 19.0135 14.456 18.9654 14.3953 18.9047C14.3345 18.844 14.2863 18.7719 14.2534 18.6926C14.2206 18.6133 14.2037 18.5283 14.2038 18.4425C14.2039 18.3566 14.2209 18.2716 14.2539 18.1924C14.2869 18.1131 14.3352 18.0411 14.3961 17.9806L18.0115 14.3693C18.0722 14.3085 18.1442 14.2602 18.2236 14.2272C18.3029 14.1943 18.388 14.1773 18.4739 14.1772C18.5599 14.1771 18.645 14.194 18.7244 14.2268C18.8038 14.2596 18.876 14.3077 18.9367 14.3684C18.9975 14.4291 19.0457 14.5012 19.0785 14.5805C19.1114 14.6598 19.1282 14.7448 19.1282 14.8307C19.1281 14.9165 19.1111 15.0015 19.0781 15.0807C19.0451 15.16 18.9968 15.232 18.9359 15.2926L15.3205 18.9039ZM17.3797 18.2833L18.3041 17.3599L22.3372 21.3884L21.4128 22.3118L17.3797 18.2833ZM22.2346 24.774L21.9668 24.5065C21.7929 24.3324 21.6953 24.0965 21.6953 23.8506C21.6953 23.6047 21.7929 23.3688 21.9668 23.1948L23.2216 21.9414C23.3959 21.7678 23.632 21.6704 23.8781 21.6704C24.1242 21.6705 24.3603 21.768 24.5346 21.9416L24.8024 22.2091L22.2346 24.774Z" fill="#0C1E2B"/>
<path d="M25.8807 0.148724C25.8186 0.0867547 25.7416 0.0418795 25.657 0.0184679C25.5724 -0.0049438 25.4832 -0.00609663 25.3981 0.0151165L18.3894 1.76306C18.2762 1.79127 18.1762 1.85748 18.1061 1.95059L13.6608 7.85669C13.5804 7.96438 13.5459 8.09954 13.565 8.23256C13.5841 8.36558 13.6552 8.48561 13.7628 8.56636C13.8703 8.64711 14.0055 8.682 14.1387 8.66337C14.272 8.64476 14.3924 8.57415 14.4736 8.46702L18.8106 2.70483L24.8229 1.20542L23.3217 7.21084L17.3238 11.7149C17.2704 11.755 17.2255 11.8052 17.1915 11.8626C17.1576 11.92 17.1353 11.9836 17.1259 12.0496C17.1165 12.1156 17.1203 12.1828 17.1369 12.2474C17.1536 12.312 17.1828 12.3727 17.2229 12.426C17.263 12.4793 17.3133 12.5241 17.3707 12.5581C17.4282 12.592 17.4918 12.6142 17.5579 12.6236C17.624 12.633 17.6913 12.6292 17.756 12.6126C17.8206 12.596 17.8814 12.5668 17.9347 12.5267L24.0768 7.91441C24.17 7.84441 24.2363 7.74452 24.2645 7.63151L26.0145 0.630814C26.0358 0.54576 26.0346 0.456655 26.0112 0.372171C25.9877 0.287688 25.9428 0.210709 25.8807 0.148724Z" fill="#1875F0"/>
<path d="M22.0906 3.93461C21.9952 3.83938 21.8659 3.78588 21.7311 3.78588C21.5962 3.78588 21.4669 3.83938 21.3715 3.93461L16.9563 8.3448C16.8609 8.44004 16.8074 8.56922 16.8074 8.7039C16.8074 8.83859 16.8609 8.96777 16.9563 9.063C17.0516 9.15824 17.181 9.21174 17.3158 9.21174C17.4507 9.21174 17.58 9.15824 17.6753 9.063L22.0906 4.6528C22.1859 4.55755 22.2395 4.42839 22.2395 4.29371C22.2395 4.15902 22.1859 4.02985 22.0906 3.93461Z" fill="#1875F0"/>
<path d="M35.7269 13.2523L34.7127 11.4819H34.6281L34.8994 13.2697L34.9031 19.4094L32.539 19.4109L32.5319 7.5194L34.3388 7.51823L39.2229 13.8069L40.1865 15.5267H40.2878L40.0162 13.7895L40.0126 7.59924L42.3767 7.59774L42.384 19.4892L40.5772 19.4904L35.7269 13.2523Z" fill="#0C1E2B"/>
<path d="M52.6157 16.8854L48.6304 16.888L47.6694 19.4017L45.1702 19.4032L49.7897 7.50904L51.6303 7.50787L56.2816 19.3965L53.6302 19.3982L52.6157 16.8854ZM49.3214 14.9139L52.0233 14.9124L51.1099 12.4503L50.7035 10.5782L50.6192 10.5784L50.2152 12.4677L49.3214 14.9139Z" fill="#0C1E2B"/>
<path d="M64.6044 16.1529C64.6084 15.9891 64.5701 15.827 64.4931 15.6824C64.4161 15.5377 64.3031 15.4152 64.1649 15.3269C63.8246 15.1001 63.459 14.9135 63.0755 14.7709C62.6417 14.6024 62.1715 14.434 61.665 14.2656C61.1681 14.1021 60.6942 13.8756 60.2549 13.5918C59.8241 13.3141 59.4535 12.953 59.1648 12.5299C58.8518 12.0308 58.6984 11.4485 58.725 10.8602C58.7134 10.329 58.8197 9.80191 59.0364 9.31668C59.2343 8.88469 59.5356 8.508 59.9137 8.21984C60.3233 7.91721 60.7876 7.69639 61.281 7.56951C61.8568 7.41789 62.4503 7.34385 63.0458 7.34935C63.7567 7.34598 64.4664 7.41047 65.165 7.54196C65.739 7.63846 66.2945 7.823 66.812 8.08904L66.0196 10.1812C65.8536 10.088 65.6814 10.0064 65.5042 9.93693C65.2711 9.84512 65.0311 9.77189 64.7864 9.71793C64.5161 9.65645 64.229 9.60606 63.9251 9.56675C63.6171 9.52738 63.3068 9.50785 62.9963 9.50828C62.541 9.48274 62.0876 9.5853 61.6878 9.80429C61.544 9.88653 61.4251 10.0059 61.3435 10.1499C61.2619 10.2938 61.2205 10.4571 61.2238 10.6225C61.2204 10.7874 61.2589 10.9505 61.3358 11.0965C61.4127 11.2425 61.5254 11.3666 61.6634 11.4572C62.003 11.69 62.3687 11.8823 62.7531 12.03C63.1862 12.2043 63.6563 12.3783 64.1633 12.5522C64.6583 12.7206 65.1318 12.9468 65.5737 13.2261C66.0019 13.4964 66.3723 13.8487 66.6635 14.2626C66.9736 14.7379 67.1275 15.298 67.1037 15.8648C67.1187 16.4451 67.0036 17.0215 66.7668 17.5517C66.5496 18.0144 66.2223 18.4171 65.8136 18.7247C65.3718 19.0487 64.8696 19.2813 64.3365 19.4085C63.7178 19.5603 63.0825 19.6343 62.4454 19.6291C62.0079 19.6307 61.5707 19.6056 61.1362 19.5539C60.7251 19.5034 60.3453 19.4419 59.9966 19.3691C59.686 19.3063 59.3788 19.2276 59.0762 19.1334C58.8592 19.068 58.6474 18.9864 58.4427 18.8892L59.2688 16.7802C59.4348 16.8659 59.607 16.9392 59.7839 16.9994C60.0033 17.0781 60.2483 17.1538 60.5188 17.2266C60.8048 17.303 61.0952 17.362 61.3884 17.4031C61.6988 17.448 62.012 17.4703 62.3256 17.47C62.9091 17.5024 63.4917 17.3921 64.0228 17.1486C64.2055 17.0563 64.3576 16.9132 64.4608 16.7366C64.564 16.5599 64.6139 16.3572 64.6044 16.1529Z" fill="#0C1E2B"/>
<path d="M76.0028 16.1461C76.0068 15.9823 75.9685 15.8202 75.8915 15.6755C75.8145 15.5308 75.7015 15.4084 75.5633 15.32C75.2229 15.0932 74.8573 14.9066 74.4739 14.7639C74.0401 14.5955 73.5699 14.4272 73.0634 14.2588C72.5665 14.0951 72.0926 13.8687 71.6532 13.5849C71.2225 13.3072 70.8519 12.9461 70.5632 12.523C70.2502 12.024 70.0968 11.4416 70.1233 10.8533C70.1118 10.3222 70.2181 9.79504 70.4347 9.30981C70.6326 8.87782 70.9339 8.50113 71.3121 8.21297C71.7217 7.91034 72.186 7.68953 72.6794 7.56265C73.2552 7.41102 73.8487 7.33698 74.4441 7.34248C75.1551 7.3391 75.8647 7.40359 76.5634 7.53509C77.1374 7.63143 77.6929 7.81598 78.2104 8.08217L77.418 10.1743C77.252 10.0811 77.0798 9.99949 76.9025 9.93006C76.6695 9.83817 76.4294 9.76494 76.1848 9.71106C75.9145 9.64958 75.6274 9.59913 75.3235 9.55971C75.0154 9.5204 74.7052 9.50093 74.3946 9.50141C73.9393 9.47582 73.486 9.57832 73.0861 9.79725C72.9424 9.87954 72.8235 9.99894 72.7419 10.1429C72.6603 10.2869 72.6189 10.4502 72.6222 10.6156C72.6188 10.7805 72.6573 10.9436 72.7342 11.0896C72.811 11.2356 72.9237 11.3597 73.0617 11.4504C73.4014 11.6831 73.7671 11.8753 74.1515 12.0232C74.5846 12.1974 75.0547 12.3715 75.5616 12.5454C76.0567 12.7138 76.5301 12.9399 76.9721 13.2191C77.4002 13.4895 77.7706 13.8418 78.0618 14.2558C78.372 14.731 78.5259 15.2911 78.502 15.8579C78.5171 16.4383 78.402 17.0146 78.1652 17.5448C77.9479 18.0076 77.6207 18.4103 77.2119 18.7178C76.7702 19.0419 76.268 19.2744 75.7349 19.4017C75.1161 19.5534 74.4808 19.6275 73.8437 19.6222C73.4062 19.6238 72.969 19.5986 72.5346 19.5469C72.1235 19.4966 71.7437 19.435 71.395 19.3623C71.0844 19.2994 70.7772 19.2207 70.4745 19.1265C70.2575 19.0611 70.0458 18.9795 69.841 18.8823L70.6672 16.7733C70.8332 16.8591 71.0054 16.9323 71.1823 16.9923C71.4017 17.0712 71.6467 17.147 71.9171 17.2197C72.2032 17.2961 72.4936 17.3551 72.7868 17.3963C73.0972 17.4411 73.4104 17.4634 73.724 17.4631C74.3075 17.4953 74.89 17.385 75.4211 17.1417C75.6039 17.0494 75.756 16.9064 75.8592 16.7297C75.9624 16.5531 76.0123 16.3504 76.0028 16.1461Z" fill="#0C1E2B"/>
<path d="M88.2123 16.8641L84.227 16.8664L83.266 19.3803L80.7668 19.3818L85.3866 7.48748L87.2272 7.48631L91.8778 19.3751L89.2271 19.3766L88.2123 16.8641ZM84.9183 14.8926L87.6203 14.8909L86.7068 12.4288L86.3004 10.5568H86.2158L85.8117 12.4463L84.9183 14.8926Z" fill="#0C1E2B"/>
<path d="M101.631 7.56199L103.995 7.56065L104 15.1341C104.015 15.8122 103.904 16.4872 103.672 17.1247C103.476 17.6525 103.158 18.1265 102.744 18.5082C102.33 18.8768 101.84 19.1506 101.309 19.3105C100.715 19.4904 100.097 19.5789 99.4768 19.5729C97.8894 19.5739 96.679 19.2289 95.8457 18.5377C95.0119 17.8467 94.5947 16.8096 94.5941 15.4265L94.5894 7.56633L97.0886 7.56483L97.093 14.9696C97.0937 15.8693 97.2911 16.4961 97.6854 16.85C98.1847 17.2383 98.8107 17.4272 99.4417 17.3801C99.7416 17.4043 100.043 17.3666 100.328 17.2692C100.613 17.1719 100.874 17.0169 101.096 16.8141C101.456 16.4372 101.636 15.8215 101.635 14.9667L101.631 7.56199Z" fill="#0C1E2B"/>
</g>
<defs>
<clipPath id="clip0">
<rect width="104" height="26" fill="white"/>
</clipPath>
</defs>
</svg>
